<?xml version="1.0" encoding="utf-8"?>
<!-- Generator: Adobe Illustrator 26.0.1, SVG Export Plug-In . SVG Version: 6.00 Build 0)  -->
<svg version="1.1" id="レイヤー_1" xmlns="http://www.w3.org/2000/svg" xmlns:xlink="http://www.w3.org/1999/xlink" x="0px"
	 y="0px" viewBox="0 0 100 100" style="enable-background:new 0 0 100 100;" xml:space="preserve">
<style type="text/css">
	.st0{stroke:#000000;stroke-width:3;stroke-miterlimit:10;}
	.st1{fill:none;stroke:#000000;stroke-width:5;stroke-miterlimit:10;}
	.st2{enable-background:new    ;}
</style>
<g>
	<path class="st0" d="M90.2,7C91.7,7,93,8.3,93,9.8v80.4c0,1.6-1.3,2.8-2.8,2.8H9.8C8.3,93,7,91.7,7,90.2V9.8C7,8.3,8.3,7,9.8,7H90
		 M90.2,4H9.8C6.6,4,4,6.6,4,9.8v80.4C4,93.4,6.6,96,9.8,96h80.4c3.2,0,5.8-2.6,5.8-5.8V9.8C96,6.6,93.4,4,90.2,4L90.2,4z"/>
</g>
<line class="st1" x1="34.5" y1="4" x2="35.5" y2="96"/>
<line class="st1" x1="64.5" y1="4" x2="65.5" y2="96"/>
<g class="st2">
	<path d="M12.4,50.3c0-3,0.3-5.5,0.9-7.4s1.6-3.3,2.8-4.3s2.8-1.5,4.7-1.5c1.4,0,2.6,0.3,3.6,0.8s1.9,1.4,2.6,2.4s1.2,2.3,1.6,3.8
		s0.6,3.5,0.6,6.1c0,3-0.3,5.5-0.9,7.3s-1.5,3.3-2.8,4.3s-2.8,1.5-4.7,1.5c-2.5,0-4.4-0.9-5.9-2.7C13.3,58.6,12.4,55.1,12.4,50.3z
		 M15.7,50.3c0,4.2,0.5,7,1.5,8.4s2.2,2.1,3.7,2.1s2.7-0.7,3.7-2.1s1.5-4.2,1.5-8.4c0-4.2-0.5-7.1-1.5-8.5s-2.2-2.1-3.7-2.1
		c-1.5,0-2.6,0.6-3.5,1.8C16.2,43.2,15.7,46.1,15.7,50.3z"/>
</g>
<g class="st2">
	<path d="M42.2,56.5l3.3-0.3c0.2,1.6,0.8,2.8,1.7,3.6s2,1.2,3.2,1.2c1.5,0,2.8-0.6,3.8-1.7s1.6-2.7,1.6-4.5c0-1.8-0.5-3.2-1.5-4.2
		c-1-1-2.3-1.6-4-1.6c-1,0-1.9,0.2-2.7,0.7c-0.8,0.5-1.5,1.1-1.9,1.8l-2.9-0.4L45.3,38H58v3H47.8l-1.4,6.9c1.5-1.1,3.1-1.6,4.8-1.6
		c2.2,0,4.1,0.8,5.7,2.3c1.5,1.5,2.3,3.5,2.3,6c0,2.3-0.7,4.3-2,6c-1.6,2.1-3.9,3.1-6.7,3.1c-2.3,0-4.2-0.7-5.7-2
		C43.3,60.4,42.5,58.7,42.2,56.5z"/>
</g>
<g class="st2">
	<path d="M88,83v3H71.2c0-0.8,0.1-1.5,0.4-2.2c0.4-1.1,1.1-2.3,2.1-3.4c0.9-1.1,2.3-2.4,4.1-3.8c2.8-2.3,4.6-4.1,5.6-5.4
		c1-1.3,1.5-2.6,1.5-3.8c0-1.2-0.4-2.3-1.3-3.1c-0.9-0.8-2-1.3-3.5-1.3c-1.5,0-2.7,0.5-3.6,1.4c-0.9,0.9-1.4,2.2-1.4,3.7l-3.2-0.3
		c0.2-2.4,1-4.2,2.5-5.5c1.4-1.3,3.4-1.9,5.8-1.9c2.4,0,4.4,0.7,5.8,2c1.4,1.4,2.1,3,2.1,5c0,1-0.2,2-0.6,3s-1.1,2-2.1,3.1
		c-1,1.1-2.6,2.6-4.8,4.5c-1.9,1.6-3.1,2.6-3.6,3.2s-1,1.1-1.3,1.7H88z"/>
</g>
<g class="st2">
	<path d="M84,38h-4V17.8c-0.7,0.7-1.7,1.5-2.8,2.2c-1.2,0.7-2.2,1.3-3.2,1.6v-3.2c1.9-0.8,3.5-1.8,4.9-3c1.4-1.2,2.4-2.3,3-3.5H84
		V38z"/>
</g>
<line class="st1" x1="170.5" y1="82" x2="171" y2="82"/>
</svg>
